<?xml version="1.0" encoding="utf-8"?>
<svg viewBox="1200 0 500 600" width="500" height="600" xmlns="http://www.w3.org/2000/svg">
  <g transform="matrix(1.172076, 0, 0, 1.172076, 1260.87685, 27.335957)">
    <title>JS badge</title>
    <polygon fill="#EFC725" points="40.845,401.254 13.775,97.632 311.225,97.632 284.127,401.205 162.318,434.975 &#9;"/>
    <polygon fill="#FBDE34" points="162.25,408.787 260.678,381.5 283.836,122.083 162.25,122.083 &#9;"/>
    <polygon fill="#EBEBEB" points="162.193,331.426 162.031,331.473 120.559,320.272 117.906,290.575 97.756,290.575 80.527,290.575 &#10;&#9;&#9;85.744,349.043 162.021,370.219 162.193,370.17 &#9;"/>
    <polygon fill="#EBEBEB" points="167.209,271.937 167.209,234.7 121.355,234.7 126.732,176.258 167.312,175.177 167.209,136.454 &#10;&#9;&#9;93.065,136.454 90.311,163.903 81.559,261.938 80.651,271.937 90.686,271.937 &#9;"/>
    <polygon fill="#FFFFFF" points="166.957,175.229 167.12,175.183 207.791,177.632 211.242,216.079 231.393,216.079 248.623,216.079 &#10;&#9;&#9;242.109,144.133 167.129,136.437 166.957,136.485 &#9;"/>
    <polyline fill="#FFFFFF" points="244.784,175.343 241.593,136.454 162.99,136.454 162.99,160.606 162.99,175.246 162.99,175.343 &#10;&#9;&#9;244.784,175.343 &#9;"/>
    <polygon fill="#FFFFFF" points="162.064,234.718 162.064,271.954 207.918,271.954 203.596,320.247 162.064,331.459 &#10;&#9;&#9;162.064,370.201 238.404,349.043 238.963,342.752 247.715,244.717 248.623,234.718 238.588,234.718 &#9;"/>
    <path fill="#FFFFFF" d="M240,173.693"/>
    <path d="M 214.945 30.54 L 190.256 30.54 L 215.932 58.4 L 215.932 71.66 L 163.049 71.66 L 163.049 56.134 L 188.719 56.134 L 163.049 28.275 L 163.049 14.994 L 214.945 14.994 L 214.945 30.54 Z M 153.631 15.019 L 153.631 71.636 L 108.088 71.636 L 108.088 52.922 L 134.701 52.922 L 134.701 15.019 L 153.629 15.019 L 153.631 15.019 Z" fill="#151515"/>
    <path fill="#FFFFFF" d="M239.51,173.693"/>
  </g>
</svg>